<svg xmlns="http://www.w3.org/2000/svg" viewBox="0 0 64 64">
<circle cx="32" cy="32" r="14" fill="none" stroke="#0e6ba8" stroke-width="3"/>
<circle cx="32" cy="32" r="4" fill="#0e6ba8"/>
<line x1="52.0" y1="32.0" x2="58.0" y2="32.0" stroke="#0e6ba8" stroke-width="2"/><line x1="51.7" y1="35.5" x2="65.4" y2="37.9" stroke="#0e6ba8" stroke-width="2"/><line x1="50.8" y1="38.8" x2="58.4" y2="41.6" stroke="#0e6ba8" stroke-width="2"/><line x1="49.3" y1="42.0" x2="60.9" y2="48.7" stroke="#0e6ba8" stroke-width="2"/><line x1="47.3" y1="44.9" x2="54.9" y2="51.3" stroke="#0e6ba8" stroke-width="2"/><line x1="44.9" y1="47.3" x2="52.8" y2="56.8" stroke="#0e6ba8" stroke-width="2"/><line x1="42.0" y1="49.3" x2="47.8" y2="59.4" stroke="#0e6ba8" stroke-width="2"/><line x1="38.8" y1="50.8" x2="42.6" y2="61.1" stroke="#0e6ba8" stroke-width="2"/><line x1="35.5" y1="51.7" x2="37.7" y2="64.4" stroke="#0e6ba8" stroke-width="2"/><line x1="32.0" y1="52.0" x2="32.0" y2="61.2" stroke="#0e6ba8" stroke-width="2"/><line x1="28.5" y1="51.7" x2="26.1" y2="65.2" stroke="#0e6ba8" stroke-width="2"/><line x1="25.2" y1="50.8" x2="22.7" y2="57.6" stroke="#0e6ba8" stroke-width="2"/><line x1="22.0" y1="49.3" x2="15.0" y2="61.4" stroke="#0e6ba8" stroke-width="2"/><line x1="19.1" y1="47.3" x2="14.7" y2="52.6" stroke="#0e6ba8" stroke-width="2"/><line x1="16.7" y1="44.9" x2="6.1" y2="53.7" stroke="#0e6ba8" stroke-width="2"/><line x1="14.7" y1="42.0" x2="7.0" y2="46.4" stroke="#0e6ba8" stroke-width="2"/><line x1="13.2" y1="38.8" x2="1.0" y2="43.3" stroke="#0e6ba8" stroke-width="2"/><line x1="12.3" y1="35.5" x2="1.8" y2="37.3" stroke="#0e6ba8" stroke-width="2"/><line x1="12.0" y1="32.0" x2="0.2" y2="32.0" stroke="#0e6ba8" stroke-width="2"/><line x1="12.3" y1="28.5" x2="0.3" y2="26.4" stroke="#0e6ba8" stroke-width="2"/><line x1="13.2" y1="25.2" x2="3.6" y2="21.7" stroke="#0e6ba8" stroke-width="2"/><line x1="14.7" y1="22.0" x2="3.2" y2="15.4" stroke="#0e6ba8" stroke-width="2"/><line x1="16.7" y1="19.1" x2="10.3" y2="13.8" stroke="#0e6ba8" stroke-width="2"/><line x1="19.1" y1="16.7" x2="10.2" y2="6.0" stroke="#0e6ba8" stroke-width="2"/><line x1="22.0" y1="14.7" x2="18.8" y2="9.2" stroke="#0e6ba8" stroke-width="2"/><line x1="25.2" y1="13.2" x2="20.4" y2="0.1" stroke="#0e6ba8" stroke-width="2"/><line x1="28.5" y1="12.3" x2="27.2" y2="4.7" stroke="#0e6ba8" stroke-width="2"/><line x1="32.0" y1="12.0" x2="32.0" y2="-1.5" stroke="#0e6ba8" stroke-width="2"/><line x1="35.5" y1="12.3" x2="37.2" y2="2.8" stroke="#0e6ba8" stroke-width="2"/><line x1="38.8" y1="13.2" x2="43.1" y2="1.4" stroke="#0e6ba8" stroke-width="2"/><line x1="42.0" y1="14.7" x2="47.7" y2="4.8" stroke="#0e6ba8" stroke-width="2"/><line x1="44.9" y1="16.7" x2="52.1" y2="8.1" stroke="#0e6ba8" stroke-width="2"/><line x1="47.3" y1="19.1" x2="57.1" y2="11.0" stroke="#0e6ba8" stroke-width="2"/><line x1="49.3" y1="22.0" x2="57.5" y2="17.3" stroke="#0e6ba8" stroke-width="2"/><line x1="50.8" y1="25.2" x2="63.6" y2="20.5" stroke="#0e6ba8" stroke-width="2"/><line x1="51.7" y1="28.5" x2="59.1" y2="27.2" stroke="#0e6ba8" stroke-width="2"/>
</svg>